<svg xmlns="http://www.w3.org/2000/svg" xmlns:xlink="http://www.w3.org/1999/xlink" width="1080" zoomAndPan="magnify" viewBox="0 0 810 809.999993" height="1080" preserveAspectRatio="xMidYMid meet" version="1.0"><defs><clipPath id="652822e40d"><path d="M 306 443 L 423 443 L 423 540.800781 L 306 540.800781 Z M 306 443 " clip-rule="nonzero"/></clipPath><clipPath id="117aa29fc7"><path d="M 363 443 L 450 443 L 450 540.800781 L 363 540.800781 Z M 363 443 " clip-rule="nonzero"/></clipPath><clipPath id="29631295b9"><path d="M 393 443 L 500 443 L 500 540.800781 L 393 540.800781 Z M 393 443 " clip-rule="nonzero"/></clipPath><clipPath id="6952512f79"><path d="M 441 443 L 528 443 L 528 540.800781 L 441 540.800781 Z M 441 443 " clip-rule="nonzero"/></clipPath><clipPath id="fd3b34cc48"><path d="M 473 443 L 585 443 L 585 540.800781 L 473 540.800781 Z M 473 443 " clip-rule="nonzero"/></clipPath><clipPath id="5964ed4f51"><path d="M 163 443 L 274 443 L 274 540.800781 L 163 540.800781 Z M 163 443 " clip-rule="nonzero"/></clipPath><clipPath id="5eea9fdcd4"><path d="M 524 443 L 639 443 L 639 540.800781 L 524 540.800781 Z M 524 443 " clip-rule="nonzero"/></clipPath><clipPath id="193255101b"><path d="M 216 443 L 323 443 L 323 540.800781 L 216 540.800781 Z M 216 443 " clip-rule="nonzero"/></clipPath><clipPath id="f46449c9f5"><path d="M 375 192.050781 L 799 192.050781 L 799 407 L 375 407 Z M 375 192.050781 " clip-rule="nonzero"/></clipPath><clipPath id="13a30b4111"><path d="M 183 192.050781 L 414 192.050781 L 414 355 L 183 355 Z M 183 192.050781 " clip-rule="nonzero"/></clipPath></defs><path stroke-linecap="butt" transform="matrix(1.330338, 0, 0, 1.330338, 0.111612, 192.049215)" fill-opacity="1" fill="#000000" fill-rule="nonzero" stroke-linejoin="miter" d="M 119.581419 231.600574 L 142.328811 231.600574 C 142.3846 231.600574 142.411026 231.627001 142.411026 231.679854 L 142.411026 232.129105 C 142.411026 232.181959 142.3846 232.211321 142.328811 232.211321 L 119.581419 232.211321 C 119.525629 232.211321 119.499203 232.181959 119.499203 232.129105 L 119.499203 231.679854 C 119.499203 231.627001 119.525629 231.600574 119.581419 231.600574 Z M 119.581419 231.600574 " stroke="#231f20" stroke-width="2" stroke-opacity="1" stroke-miterlimit="10"/><path stroke-linecap="butt" transform="matrix(1.330338, 0, 0, 1.330338, 0.111612, 192.049215)" fill-opacity="1" fill="#000000" fill-rule="nonzero" stroke-linejoin="miter" d="M 459.641273 231.301073 L 482.388664 231.301073 C 482.444454 231.301073 482.47088 231.3275 482.47088 231.380353 L 482.47088 231.829604 C 482.47088 231.882458 482.444454 231.908884 482.388664 231.908884 L 459.641273 231.908884 C 459.585483 231.908884 459.559057 231.882458 459.559057 231.829604 L 459.559057 231.380353 C 459.559057 231.3275 459.585483 231.301073 459.641273 231.301073 Z M 459.641273 231.301073 " stroke="#231f20" stroke-width="2" stroke-opacity="1" stroke-miterlimit="10"/><path stroke-linecap="butt" transform="matrix(1.330338, 0, 0, 1.330338, 0.111612, 192.049215)" fill-opacity="1" fill="#000000" fill-rule="nonzero" stroke-linejoin="miter" d="M 226.03933 225.049725 L 234.510509 225.049725 L 234.510509 248.269858 L 242.491329 248.269858 L 242.491329 225.049725 L 250.880292 225.049725 L 250.880292 217.380151 L 226.03933 217.380151 Z M 226.03933 225.049725 " stroke="#231f20" stroke-width="2" stroke-opacity="1" stroke-miterlimit="10"/><path fill="#000000" d="M 359.304688 481.265625 L 343.910156 522.570312 L 354.859375 522.570312 L 357.746094 514.097656 L 370.476562 514.097656 L 373.179688 522.585938 L 385.113281 522.585938 C 385.113281 522.585938 369.558594 481.277344 369.558594 481.277344 L 359.289062 481.277344 Z M 360.421875 506.25 L 364.132812 495.339844 L 367.832031 506.25 Z M 360.421875 506.25 " fill-opacity="1" fill-rule="nonzero"/><g clip-path="url(#652822e40d)"><path stroke-linecap="butt" transform="matrix(1.330338, 0, 0, 1.330338, 0.111612, 192.049215)" fill="none" stroke-linejoin="miter" d="M 270.001373 217.400705 L 258.429478 248.448972 L 266.659882 248.448972 L 268.829796 242.080172 L 278.399145 242.080172 L 280.431054 248.460717 L 289.401401 248.460717 C 289.401401 248.460717 277.709119 217.409514 277.709119 217.409514 L 269.989628 217.409514 Z M 270.84115 236.181177 L 273.63062 227.980136 L 276.411281 236.181177 Z M 270.84115 236.181177 " stroke="#231f20" stroke-width="2" stroke-opacity="1" stroke-miterlimit="10"/></g><path fill="#000000" d="M 400.96875 522.253906 L 411.480469 522.253906 L 411.480469 481.238281 L 400.980469 481.238281 Z M 400.96875 522.253906 " fill-opacity="1" fill-rule="nonzero"/><g clip-path="url(#117aa29fc7)"><path stroke-linecap="butt" transform="matrix(1.330338, 0, 0, 1.330338, 0.111612, 192.049215)" fill="none" stroke-linejoin="miter" d="M 301.319778 248.211133 L 309.221318 248.211133 L 309.221318 217.380151 L 301.328587 217.380151 Z M 301.319778 248.211133 " stroke="#231f20" stroke-width="2" stroke-opacity="1" stroke-miterlimit="10"/></g><path fill="#000000" d="M 442.847656 481.226562 L 431.566406 481.226562 L 431.566406 522.34375 L 461.710938 522.320312 L 461.710938 511.476562 L 442.847656 511.476562 Z M 442.847656 481.226562 " fill-opacity="1" fill-rule="nonzero"/><g clip-path="url(#29631295b9)"><path stroke-linecap="butt" transform="matrix(1.330338, 0, 0, 1.330338, 0.111612, 192.049215)" fill="none" stroke-linejoin="miter" d="M 332.799678 217.371342 L 324.31969 217.371342 L 324.31969 248.278667 L 346.978993 248.261049 L 346.978993 240.109925 L 332.799678 240.109925 Z M 332.799678 217.371342 " stroke="#231f20" stroke-width="2" stroke-opacity="1" stroke-miterlimit="10"/></g><path fill="#000000" d="M 478.992188 522.53125 L 490.15625 522.53125 L 490.207031 481.265625 L 479.035156 481.265625 Z M 478.992188 522.53125 " fill-opacity="1" fill-rule="nonzero"/><g clip-path="url(#6952512f79)"><path stroke-linecap="butt" transform="matrix(1.330338, 0, 0, 1.330338, 0.111612, 192.049215)" fill="none" stroke-linejoin="miter" d="M 359.969114 248.419609 L 368.361013 248.419609 L 368.399185 217.400705 L 360.001413 217.400705 Z M 359.969114 248.419609 " stroke="#231f20" stroke-width="2" stroke-opacity="1" stroke-miterlimit="10"/></g><path fill="#000000" d="M 537.167969 505.476562 L 521.363281 481.265625 L 510.867188 481.265625 L 510.828125 522.53125 L 520.3125 522.519531 L 520.3125 499.449219 L 536.796875 522.519531 L 547.105469 522.519531 L 547.105469 481.503906 L 537.167969 481.503906 Z M 537.167969 505.476562 " fill-opacity="1" fill-rule="nonzero"/><g clip-path="url(#fd3b34cc48)"><path stroke-linecap="butt" transform="matrix(1.330338, 0, 0, 1.330338, 0.111612, 192.049215)" fill="none" stroke-linejoin="miter" d="M 403.699191 235.599793 L 391.818986 217.400705 L 383.929191 217.400705 L 383.899828 248.419609 L 391.029125 248.4108 L 391.029125 231.069107 L 403.420244 248.4108 L 411.169097 248.4108 L 411.169097 217.579818 L 403.699191 217.579818 Z M 403.699191 235.599793 " stroke="#231f20" stroke-width="2" stroke-opacity="1" stroke-miterlimit="10"/></g><path fill="#000000" d="M 212.085938 481.265625 L 200.671875 481.238281 L 200.671875 522.144531 L 215.027344 522.054688 C 225.5625 521.695312 236.351562 513.046875 235.742188 500.167969 C 235.128906 487.53125 221.890625 480.707031 212.101562 481.265625 Z M 216.863281 511.53125 L 210.769531 511.53125 L 210.769531 492.027344 L 216.917969 492.027344 C 221.414062 491.949219 225.472656 496.058594 225.539062 501.484375 C 225.617188 506.78125 221.386719 511.304688 216.851562 511.53125 Z M 216.863281 511.53125 " fill-opacity="1" fill-rule="nonzero"/><g clip-path="url(#5964ed4f51)"><path stroke-linecap="butt" transform="matrix(1.330338, 0, 0, 1.330338, 0.111612, 192.049215)" fill="none" stroke-linejoin="miter" d="M 159.338703 217.400705 L 150.758882 217.380151 L 150.758882 248.128917 L 161.549725 248.061382 C 169.468883 247.791244 177.578899 241.290311 177.120839 231.609383 C 176.659843 222.110505 166.708776 216.980816 159.350449 217.400705 Z M 162.929779 240.151033 L 158.349176 240.151033 L 158.349176 225.490167 L 162.970887 225.490167 C 166.35055 225.431442 169.401349 228.520412 169.451265 232.598911 C 169.509991 236.580512 166.329996 239.980729 162.92097 240.151033 Z M 162.929779 240.151033 " stroke="#231f20" stroke-width="2" stroke-opacity="1" stroke-miterlimit="10"/></g><path fill="#000000" d="M 583.675781 508.203125 L 590.609375 508.203125 L 590.609375 510.519531 C 588.800781 512.40625 586.390625 513.058594 583.703125 513.058594 C 578.078125 513.058594 573.488281 508.496094 573.488281 502.296875 C 573.488281 496.097656 577.996094 491.855469 583.625 491.855469 C 587.125 491.855469 590.261719 493.011719 592.113281 495.992188 L 598.804688 488.34375 C 595.011719 484.335938 590.609375 481.476562 583.796875 481.476562 C 570.851562 481.476562 561.6875 490.5625 561.6875 502.003906 C 561.6875 513.445312 569.550781 522.53125 583.117188 522.53125 C 590.101562 522.53125 596.769531 519.859375 600.546875 514.628906 L 600.546875 497.867188 L 583.675781 497.867188 Z M 583.675781 508.203125 " fill-opacity="1" fill-rule="nonzero"/><g clip-path="url(#5eea9fdcd4)"><path stroke-linecap="butt" transform="matrix(1.330338, 0, 0, 1.330338, 0.111612, 192.049215)" fill="none" stroke-linejoin="miter" d="M 438.658587 237.649319 L 443.870491 237.649319 L 443.870491 239.390536 C 442.510992 240.808761 440.699305 241.29912 438.679141 241.29912 C 434.450892 241.29912 431.000759 237.869541 431.000759 233.209658 C 431.000759 228.549775 434.389231 225.360971 438.620416 225.360971 C 441.251326 225.360971 443.609162 226.230111 445.000961 228.470496 L 450.030815 222.721252 C 447.179683 219.708624 443.870491 217.559264 438.749612 217.559264 C 429.018767 217.559264 422.130245 224.389061 422.130245 232.989437 C 422.130245 241.589812 428.040985 248.419609 438.238699 248.419609 C 443.488774 248.419609 448.501011 246.411191 451.340398 242.479506 L 451.340398 229.879912 L 438.658587 229.879912 Z M 438.658587 237.649319 " stroke="#231f20" stroke-width="2" stroke-opacity="1" stroke-miterlimit="10"/></g><path fill="#000000" d="M 254.484375 522.332031 L 284.882812 522.332031 L 284.988281 511.53125 L 265.023438 511.53125 L 265.023438 505.648438 L 281.066406 505.648438 L 281.066406 496.683594 L 265.023438 496.683594 L 265.023438 490.761719 L 284.988281 490.761719 L 285.015625 481.238281 L 255.058594 481.238281 Z M 254.484375 522.332031 " fill-opacity="1" fill-rule="nonzero"/><g clip-path="url(#193255101b)"><path stroke-linecap="butt" transform="matrix(1.330338, 0, 0, 1.330338, 0.111612, 192.049215)" fill="none" stroke-linejoin="miter" d="M 191.20913 248.269858 L 214.059291 248.269858 L 214.138571 240.151033 L 199.131224 240.151033 L 199.131224 235.72899 L 211.190542 235.72899 L 211.190542 228.990218 L 199.131224 228.990218 L 199.131224 224.538811 L 214.138571 224.538811 L 214.159125 217.380151 L 191.640763 217.380151 Z M 191.20913 248.269858 " stroke="#231f20" stroke-width="2" stroke-opacity="1" stroke-miterlimit="10"/></g><path stroke-linecap="butt" transform="matrix(1.330338, 0, 0, 1.330338, 0.111612, 192.049215)" fill-opacity="1" fill="#ffffff" fill-rule="nonzero" stroke-linejoin="miter" d="M 462.418997 194.949878 L 465.698826 185.638922 L 500.881381 185.90906 L 506.078603 170.399608 L 470.490842 170.399608 L 473.77948 161.719952 L 509.910454 161.799232 L 515.351388 147.449612 L 454.940282 147.449612 L 433.349786 210.068804 L 495.070475 210.15102 L 499.651078 194.770765 Z M 462.418997 194.949878 " stroke="#231f20" stroke-width="2" stroke-opacity="1" stroke-miterlimit="10"/><path stroke-linecap="butt" transform="matrix(1.330338, 0, 0, 1.330338, 0.111612, 192.049215)" fill-opacity="1" fill="#ffffff" fill-rule="nonzero" stroke-linejoin="miter" d="M 421.460772 147.449612 L 394.940256 173.949575 L 386.651126 147.449612 L 360.750165 147.449612 L 340.51036 210.068804 L 364.291324 210.109912 L 373.731477 177.399709 L 385.500103 207.449639 L 415.608758 176.959266 L 405.108607 210.068804 L 428.410956 210.068804 L 448.568546 147.449612 Z M 421.460772 147.449612 " stroke="#231f20" stroke-width="2" stroke-opacity="1" stroke-miterlimit="10"/><path stroke-linecap="butt" transform="matrix(1.330338, 0, 0, 1.330338, 0.111612, 192.049215)" fill-opacity="1" fill="#ffffff" fill-rule="nonzero" stroke-linejoin="miter" d="M 328.659518 147.449612 L 300.920443 174.660156 L 292.049929 147.449612 L 265.221103 147.449612 L 246.170493 210.109912 L 268.480378 210.109912 L 279.288839 176.33971 L 291.609487 207.799057 L 322.540302 177.229404 L 312.280926 210.109912 L 336.129424 210.068804 L 355.79959 147.449612 Z M 328.659518 147.449612 " stroke="#231f20" stroke-width="2" stroke-opacity="1" stroke-miterlimit="10"/><path stroke-linecap="butt" transform="matrix(1.330338, 0, 0, 1.330338, 0.111612, 192.049215)" fill-opacity="1" fill="#ffffff" fill-rule="nonzero" stroke-linejoin="miter" d="M 210.239186 147.449612 L 161.030003 210.109912 L 184.711133 210.200937 L 193.740206 198.59087 L 219.741001 198.499845 L 219.741001 210.109912 L 243.489665 210.051186 L 242.599971 147.449612 L 210.230377 147.449612 Z M 205.379636 184.32053 L 206.198859 183.609949 L 219.74981 166.05978 L 219.890751 184.32053 Z M 205.379636 184.32053 " stroke="#231f20" stroke-width="2" stroke-opacity="1" stroke-miterlimit="10"/><path stroke-linecap="butt" transform="matrix(1.330338, 0, 0, 1.330338, 0.111612, 192.049215)" fill-opacity="1" fill="#ffffff" fill-rule="nonzero" stroke-linejoin="miter" d="M 134.259902 194.389048 L 156.690175 147.429058 L 132.260293 147.449612 L 125.368834 162.879785 L 111.351015 192.83869 C 110.989852 193.191044 105.560663 205.300279 102.480501 210.139275 L 153.451454 210.068804 L 165.328723 194.350876 Z M 134.259902 194.389048 " stroke="#231f20" stroke-width="2" stroke-opacity="1" stroke-miterlimit="10"/><path stroke-linecap="butt" transform="matrix(1.330338, 0, 0, 1.330338, 0.111612, 192.049215)" fill-opacity="1" fill="#ffffff" fill-rule="nonzero" stroke-linejoin="miter" d="M 107.281325 180.051173 C 105.819056 172.27883 93.589433 171.389135 93.871316 171.629911 C 93.871316 171.629911 77.269567 171.359773 75.058545 171.359773 C 73.681428 171.359773 71.329464 170.910521 71.329464 170.910521 C 65.959001 169.730135 67.039554 166.409198 67.180495 166.608865 C 68.730853 161.391089 74.820706 162.269038 74.92054 162.040007 L 106.999442 161.860894 L 120.700143 147.429058 L 71.30891 147.429058 C 65.600774 147.429058 59.889702 148.43914 55.171094 150.529774 C 50.499466 152.599854 49.189883 154.070933 49.189883 154.070933 C 42.550945 159.529485 39.37095 169.650855 40.480865 176.460098 C 41.088676 180.189178 45.311052 182.441308 48.999025 183.709783 C 51.809049 184.678757 54.971427 185.139753 58.160231 185.130944 L 74.421371 185.069282 C 77.260758 185.060474 80.020865 185.920805 81.509561 187.479972 C 82.989448 189.030329 82.540197 190.430937 81.471389 191.549661 C 79.771281 193.32024 76.608903 194.280405 73.390736 194.26866 L 36.190954 194.18938 C 32.320932 206.01086 22.361057 210.130466 22.361057 210.130466 L 73.370182 209.889691 C 78.300203 209.869137 83.20086 209.290689 87.749164 208.069195 C 94.799182 206.181164 97.579843 204.01125 100.909589 201.180673 C 105.340442 197.419293 108.649634 187.359584 107.26958 180.051173 Z M 107.281325 180.051173 " stroke="#231f20" stroke-width="2" stroke-opacity="1" stroke-miterlimit="10"/><path stroke-linecap="butt" transform="matrix(1.330338, 0, 0, 1.330338, 0.111612, 192.049215)" fill-opacity="1" fill="#ffffff" fill-rule="nonzero" stroke-linejoin="miter" d="M 586.280263 163.378953 C 586.620872 147.79903 561.401129 147.308671 558.138918 147.440804 L 519.929055 147.440804 L 505.121375 195.481345 L 499.539499 210.059995 L 543.85096 210.059995 C 546.00032 210.059995 548.140871 209.930799 550.269677 209.648915 C 559.930051 208.359887 576.619889 204.519227 582.03146 186.099918 C 583.661098 180.538596 586.829348 163.240948 586.280263 163.378953 Z M 500.549581 207.640497 L 502.39944 202.951252 C 501.75933 204.65136 501.098666 206.339723 500.549581 207.640497 Z M 503.709022 199.401284 L 504.889408 196.130264 C 504.639824 196.820291 504.219936 198.000677 503.709022 199.401284 Z M 561.771101 167.028754 L 556.350721 186.528616 C 555.860362 188.290386 554.970667 189.990494 553.699257 191.579024 C 552.260477 193.270324 550.801144 193.980904 548.090954 194.770765 C 546.649239 195.190653 544.690737 195.211207 544.200378 195.211207 L 526.741234 195.211207 C 527.959791 194.700294 528.799569 193.889879 529.069707 192.959077 L 537.828642 161.969537 L 556.030666 161.969537 C 556.030666 161.969537 563.151155 162.589092 561.77991 167.019945 Z M 561.771101 167.028754 " stroke="#231f20" stroke-width="2" stroke-opacity="1" stroke-miterlimit="10"/><path stroke-linecap="butt" transform="matrix(1.330338, 0, 0, 1.330338, 0.111612, 192.049215)" fill-opacity="1" fill="#000000" fill-rule="nonzero" stroke-linejoin="miter" d="M 476.169615 117.66982 C 475.890668 117.649267 448.28079 116.148825 431.508736 117.66982 C 416.900723 118.999957 411.891423 131.420438 410.549541 135.910016 C 410.299957 136.758602 410.831424 137.639488 411.700564 137.809792 C 412.461062 137.950734 413.201005 137.489737 413.409482 136.749794 C 414.510588 132.870963 418.771136 121.839344 431.790619 120.658958 C 448.339516 119.161453 475.740917 120.650149 476.069781 120.658958 C 476.809725 120.670703 493.760892 121.169871 500.578943 137.019932 C 500.89019 137.739321 501.729967 138.071121 502.461101 137.800983 L 502.478719 137.800983 C 503.280325 137.489737 503.659105 136.579489 503.321433 135.789629 C 495.690031 118.168989 476.331111 117.661012 476.190169 117.661012 Z M 476.169615 117.66982 " stroke="#231f20" stroke-width="1" stroke-opacity="1" stroke-miterlimit="10"/><path fill="#000000" d="M 772.53125 293.261719 L 476.625 293.234375 C 476.53125 293.234375 475.136719 293.289062 474.417969 292.78125 C 473.738281 292.304688 473.738281 291.253906 473.738281 291.253906 C 472.632812 235.84375 466.992188 218.136719 465.105469 213.535156 C 464.773438 212.710938 464.214844 212.019531 463.507812 211.472656 C 462.230469 210.5 460.675781 209.980469 459.066406 209.980469 L 396.300781 209.980469 C 395.234375 209.980469 394.371094 210.859375 394.398438 211.925781 L 397.257812 333.597656 L 762.25 333.570312 C 763.285156 333.570312 764.113281 334.410156 764.113281 335.433594 L 764.113281 375.796875 C 764.113281 376.488281 764.671875 377.046875 765.363281 377.046875 L 774.5 377.046875 C 775.417969 377.046875 776.164062 377.789062 776.164062 378.707031 L 776.164062 387.527344 C 776.164062 388.222656 777.109375 388.394531 777.363281 387.753906 C 778.332031 385.320312 779.609375 381.449219 780.089844 377.03125 L 780.089844 306.722656 C 780.089844 306.722656 780.914062 293.222656 772.507812 293.222656 Z M 455.738281 292.144531 L 416.5625 292.144531 C 409.203125 292.144531 409.523438 285.878906 409.523438 285.878906 L 406.355469 215.957031 C 406.316406 215.195312 406.929688 214.558594 407.699219 214.558594 L 452.878906 214.558594 C 453.796875 214.558594 454.609375 215.183594 454.835938 216.074219 C 456.152344 221.316406 460.234375 240.914062 461.417969 285.890625 C 461.566406 291.679688 455.753906 292.15625 455.753906 292.15625 Z M 776.191406 371.816406 C 776.191406 372.84375 775.367188 373.667969 774.339844 373.667969 L 769.351562 373.667969 C 768.820312 373.667969 768.382812 373.226562 768.382812 372.695312 L 768.382812 310.886719 C 768.382812 310.289062 768.875 309.796875 769.472656 309.796875 L 774.5 309.796875 C 775.445312 309.796875 776.203125 310.554688 776.203125 311.5 L 776.203125 371.804688 Z M 776.191406 371.816406 " fill-opacity="1" fill-rule="nonzero"/><g clip-path="url(#f46449c9f5)"><path stroke-linecap="butt" transform="matrix(1.330338, 0, 0, 1.330338, 0.111612, 192.049215)" fill="none" stroke-linejoin="miter" d="M 580.619108 76.080295 L 358.189726 76.059741 C 358.119255 76.059741 357.071001 76.100849 356.530725 75.719132 C 356.019812 75.360905 356.019812 74.571045 356.019812 74.571045 C 355.188843 32.919857 350.948849 19.609681 349.530624 16.150739 C 349.28104 15.531183 348.861151 15.011461 348.329684 14.600381 C 347.369519 13.869246 346.200878 13.478721 344.991129 13.478721 L 297.810919 13.478721 C 297.009313 13.478721 296.360394 14.139384 296.380948 14.94099 L 298.530308 106.400363 L 572.890808 106.379809 C 573.668924 106.379809 574.291416 107.01111 574.291416 107.780416 L 574.291416 138.121038 C 574.291416 138.640761 574.711305 139.060649 575.231027 139.060649 L 582.098995 139.060649 C 582.789022 139.060649 583.349852 139.618543 583.349852 140.30857 L 583.349852 146.938699 C 583.349852 147.461358 584.060433 147.590554 584.251291 147.109003 C 584.97949 145.279699 585.939654 142.369841 586.300817 139.048904 L 586.300817 86.198729 C 586.300817 86.198729 586.920373 76.050932 580.60149 76.050932 Z M 342.489415 75.240517 L 313.041423 75.240517 C 307.509464 75.240517 307.75024 70.530718 307.75024 70.530718 L 305.368913 17.971235 C 305.339551 17.39866 305.800547 16.920045 306.378995 16.920045 L 340.340055 16.920045 C 341.030082 16.920045 341.640829 17.389851 341.811134 18.059324 C 342.800661 21.999817 345.869078 36.731153 346.758772 70.539527 C 346.870351 74.8911 342.50116 75.249326 342.50116 75.249326 Z M 583.370406 135.128965 C 583.370406 135.901208 582.75085 136.520763 581.978607 136.520763 L 578.228973 136.520763 C 577.829638 136.520763 577.500774 136.188963 577.500774 135.789629 L 577.500774 89.328808 C 577.500774 88.879556 577.870746 88.509585 578.319997 88.509585 L 582.098995 88.509585 C 582.809576 88.509585 583.379215 89.079224 583.379215 89.789804 L 583.379215 135.120156 Z M 583.370406 135.128965 " stroke="#231f20" stroke-width="1" stroke-opacity="1" stroke-miterlimit="10"/></g><path fill="#000000" d="M 390.179688 210.15625 L 323.332031 210.007812 C 305.210938 210.007812 293.304688 218.082031 292.734375 218.429688 C 267.960938 233.636719 212.980469 280.796875 206.3125 286.53125 C 206.007812 286.796875 206.101562 287.289062 206.472656 287.433594 L 209.613281 288.683594 C 210.144531 288.898438 210.558594 289.324219 210.71875 289.867188 C 211.195312 291.425781 212.0625 294.566406 211.234375 295.097656 C 204.398438 299.554688 202.335938 335.804688 202.335938 335.804688 L 359.035156 333.625 L 359.035156 329.261719 C 359.035156 328.78125 359.222656 328.316406 359.542969 327.957031 L 359.796875 327.675781 C 360.328125 327.078125 361.097656 326.746094 361.898438 326.746094 L 380.90625 326.746094 C 381.492188 326.746094 382.050781 326.984375 382.449219 327.410156 L 382.863281 327.851562 C 383.25 328.277344 383.476562 328.820312 383.476562 329.394531 L 383.476562 333.625 L 394.316406 333.558594 L 391.390625 211.339844 C 391.378906 210.6875 390.84375 210.15625 390.179688 210.15625 Z M 375.691406 298.089844 L 222.929688 299.222656 C 218.019531 298.277344 222.929688 292.609375 222.929688 292.609375 C 222.929688 292.609375 272.40625 246.871094 297.523438 229.539062 C 297.523438 229.539062 305.835938 222.925781 317.730469 221.980469 L 376.449219 221.980469 C 376.449219 221.980469 380.042969 221.222656 380.042969 224.441406 L 380.988281 294.683594 C 380.230469 298.464844 375.707031 298.078125 375.707031 298.078125 Z M 375.691406 298.089844 " fill-opacity="1" fill-rule="nonzero"/><g clip-path="url(#13a30b4111)"><path stroke-linecap="butt" transform="matrix(1.330338, 0, 0, 1.330338, 0.111612, 192.049215)" fill="none" stroke-linejoin="miter" d="M 293.209762 13.610853 L 242.961134 13.499275 C 229.339713 13.499275 220.389919 19.568574 219.961222 19.829903 C 201.339309 31.260856 160.011112 66.710612 154.998876 71.021077 C 154.769846 71.220745 154.840316 71.590716 155.119263 71.699359 L 157.480036 72.63897 C 157.87937 72.800465 158.190616 73.12052 158.311004 73.528664 C 158.669231 74.700241 159.321086 77.061013 158.698594 77.460348 C 153.560097 80.810648 152.009739 108.059363 152.009739 108.059363 L 269.79877 106.420917 L 269.79877 103.141087 C 269.79877 102.779925 269.939711 102.430507 270.180487 102.160369 L 270.371345 101.948956 C 270.77068 101.499705 271.349128 101.250121 271.951066 101.250121 L 286.239023 101.250121 C 286.679466 101.250121 287.099355 101.429234 287.398856 101.749289 L 287.710102 102.081089 C 288.000794 102.401144 288.171098 102.809287 288.171098 103.240921 L 288.171098 106.420917 L 296.319286 106.371 L 294.12001 14.500547 C 294.111201 14.010188 293.70893 13.610853 293.209762 13.610853 Z M 282.319084 79.709542 L 167.489828 80.561064 C 163.798919 79.850483 167.489828 75.589935 167.489828 75.589935 C 167.489828 75.589935 204.6808 41.208986 223.561106 28.180694 C 223.561106 28.180694 229.809518 23.209566 238.750503 22.498985 L 282.888723 22.498985 C 282.888723 22.498985 285.590105 21.929346 285.590105 24.348844 L 286.300685 77.149102 C 285.731046 79.991425 282.33083 79.700733 282.33083 79.700733 Z M 282.319084 79.709542 " stroke="#231f20" stroke-width="1" stroke-opacity="1" stroke-miterlimit="10"/></g><path stroke-linecap="butt" transform="matrix(1.330338, 0, 0, 1.330338, 0.111612, 192.049215)" fill-opacity="1" fill="#000000" fill-rule="nonzero" stroke-linejoin="miter" d="M 157.060147 76.209491 C 157.060147 75.410822 156.640259 74.330269 155.530343 73.898636 C 155.530343 73.898636 154.30004 72.929662 148.759272 73.378913 C 134.421398 74.559299 46.52961 90.949636 35.950179 93.938774 C 33.160709 94.728634 31.489964 95.539048 30.691294 95.991236 C 30.330132 96.190903 30.030631 96.478659 29.798664 96.819268 L 24.760001 104.421307 C 24.390029 104.979201 24.190362 105.639865 24.190362 106.321083 L 24.190362 115.928604 C 24.190362 116.148825 24.369475 116.31913 24.580888 116.31913 L 29.848581 116.260404 C 30.488691 116.260404 31.011349 116.771318 31.011349 117.411428 L 31.070075 131.038721 C 31.070075 131.349967 30.820491 131.599552 30.509245 131.599552 L 24.91856 131.540826 C 24.601442 131.540826 24.340112 131.799219 24.348921 132.119274 L 24.431137 134.820655 C 24.431137 134.979214 24.569142 135.111347 24.730638 135.111347 L 31.061266 135.149519 C 32.121265 135.149519 32.97866 134.300933 32.97866 133.240934 L 32.97866 112.079136 C 32.97866 111.709164 33.269352 111.409663 33.639324 111.389109 C 42.451112 111.118971 136.250703 108.241413 149.690074 108.050554 C 148.870851 108.050554 151.909905 77.560182 157.039593 76.209491 Z M 157.060147 76.209491 " stroke="#231f20" stroke-width="1" stroke-opacity="1" stroke-miterlimit="10"/><path stroke-linecap="butt" transform="matrix(1.330338, 0, 0, 1.330338, 0.111612, 192.049215)" fill-opacity="1" fill="#000000" fill-rule="nonzero" stroke-linejoin="miter" d="M 143.579667 135.789629 C 141.95003 130.289969 137.701227 125.72992 133.470042 123.040284 C 132.970874 122.720229 128.360908 119.220178 122.03028 118.151371 C 116.289844 117.179461 114.68957 116.909323 95.909097 116.709656 C 77.128625 116.518797 70.419216 118.268822 70.419216 118.268822 C 57.590592 121.801172 53.421069 132.929688 52.349325 136.72924 C 52.170212 137.381095 52.648826 138.021205 53.330044 138.021205 C 53.770486 138.021205 54.161012 137.751066 54.310763 137.339987 C 55.138795 135.040876 58.251256 127.521053 64.678781 123.630477 C 65.688863 123.01973 66.190968 122.699675 66.789969 122.408983 C 67.289138 122.171144 67.829414 121.930369 69.071462 121.669039 C 70.119715 121.448818 71.200268 121.240342 72.289629 121.049483 C 73.528741 120.841007 74.808961 120.670703 75.989347 120.550315 C 77.14037 120.429927 78.599704 120.300731 80.241086 120.23026 C 81.879533 120.15098 83.679475 120.130426 84.909778 120.051147 C 89.378802 119.781009 93.871316 119.901396 99.441447 119.919014 C 103.681441 119.930759 108.508692 119.760455 114.660207 120.068764 C 116.410232 120.159789 117.981144 120.259623 120.33898 120.72062 C 121.930446 121.028929 122.840694 121.299067 124.440969 121.789427 C 126.120523 122.30034 127.180522 122.770146 128.460741 123.451364 C 134.480123 126.619614 137.331255 128.880553 141.318729 136.779156 C 141.409754 136.961206 141.559504 137.119765 141.729809 137.248962 C 142.631248 137.93018 143.908531 137.090403 143.629584 135.989296 C 143.60903 135.918825 143.591413 135.851291 143.570859 135.789629 Z M 143.579667 135.789629 " stroke="#231f20" stroke-width="1" stroke-opacity="1" stroke-miterlimit="10"/></svg>